<svg width="76" height="77" viewBox="0 0 76 77" fill="none" xmlns="http://www.w3.org/2000/svg">
<path d="M26.8266 44.3623C28.0051 45.1437 29.1868 45.9283 30.3653 46.7096C30.4396 46.6031 30.5139 46.4965 30.5914 46.39C30.2394 46.1446 29.8778 45.8798 29.5129 45.5892C28.7025 44.9467 28.0019 44.2945 27.3981 43.6713L27.9728 43.0385C29.2191 43.9684 30.4622 44.895 31.7085 45.8249C31.7666 45.7539 31.828 45.6796 31.8861 45.6086C30.798 44.527 29.7131 43.4485 28.625 42.3669C28.6864 42.27 28.7832 42.1538 28.9188 42.0408C28.9866 41.9859 29.0544 41.9407 29.1126 41.9052C30.4493 43.0449 31.786 44.1879 33.1227 45.3277C33.1841 45.2825 33.2454 45.2405 33.3068 45.1953C32.8677 44.6529 32.3801 44.1395 32.0088 43.5519C31.8474 43.2968 31.9216 42.8932 31.8893 42.5542C31.9604 42.5219 32.0895 42.4734 32.2445 42.4896C32.548 42.5154 32.7579 42.7608 32.8451 42.8641C35.2247 45.7442 35.4862 46.3706 35.4862 46.3706C38.292 50.5035 41.8211 53.9066 45.9055 56.7447C46.2026 56.9514 46.8677 57.1257 46.9904 56.9869C47.323 56.6091 47.7621 55.9149 47.6168 55.5953C47.1357 54.5427 46.5578 53.4578 45.7506 52.6571C44.7852 51.7013 44.811 50.9006 45.5375 49.9384C46.4738 48.6953 47.436 47.4684 48.3724 46.2221C49.5832 44.6109 50.0998 44.6529 50.936 46.4545C52.3502 49.4961 53.9259 50.1063 57.2935 48.6404C55.6242 46.7807 53.9517 44.9209 52.2824 43.0578C52.925 42.4282 53.5707 41.7954 54.2132 41.1658C54.9204 41.6339 55.9859 42.4121 57.1063 43.5583C58.2396 44.7174 60.6741 47.4781 61.4781 51.4495C61.7686 52.8863 62.2401 54.307 61.4425 55.8407C60.9711 56.7415 60.8323 57.9297 60.9001 58.9694C60.9776 60.1543 62.6049 61.0972 64.3517 61.1811C67.0058 61.3103 68.8107 62.6115 70.1926 64.8652C71.7392 67.3869 69.7922 70.3767 67.0058 70.6802C65.527 70.8417 64.4938 70.1442 63.3863 69.3823C62.6146 68.8527 61.7267 68.4847 60.8388 68.0165C60.7968 67.7905 60.8581 67.1802 60.5869 66.825C59.6312 65.569 59.5343 64.355 60.4674 63.0732C59.741 62.5178 59.05 61.9463 58.3138 61.4491C58.0878 61.2973 57.6616 61.2166 57.4356 61.3264C53.3835 63.3186 49.5605 62.4306 46.2123 59.9445C42.5121 57.1968 39.0347 54.1262 35.6606 50.9781C35.2763 50.6197 34.7985 50.4486 30.7754 47.9656C29.3676 47.0971 28.2214 46.3867 27.482 45.9283C27.1398 45.5117 26.7943 45.0952 26.452 44.6787C26.5812 44.5722 26.7103 44.4656 26.8395 44.3591L26.8266 44.3623Z" fill="#F4F3ED"/>
<path d="M66.2308 15.7841C65.8821 15.8616 65.3235 15.8326 64.991 16.0909C63.7414 17.0627 62.5209 17.1176 61.2327 16.2039C60.7128 16.9013 60.1607 17.5503 59.7248 18.2703C59.5472 18.5641 59.4665 19.0775 59.6021 19.3746C61.1261 22.7099 60.7225 25.9064 59.0209 29.0351C56.5251 33.62 52.9831 37.3751 49.2699 40.9462C47.7266 42.4282 46.858 44.1427 46.1219 46.0703C45.6408 47.3231 44.8465 48.4725 44.0845 49.5961C43.8585 49.9319 43.2741 50.0256 42.8511 50.229L42.5411 49.9061C43.3225 48.6985 44.1006 47.491 44.882 46.2834C44.7819 46.2188 44.6851 46.151 44.585 46.0864C44.2589 46.5901 43.8359 47.1616 43.2999 47.7525C42.7801 48.3208 42.2699 48.7825 41.8114 49.1473C41.5596 48.9827 41.3077 48.818 41.0527 48.6501C42.0278 47.4748 43.0028 46.2995 43.9779 45.1242C43.9166 45.0274 43.8553 44.9337 43.7939 44.8369C42.6412 45.8669 41.4885 46.9001 40.3359 47.9301C40.2551 47.8074 40.1712 47.6879 40.0905 47.5652C41.2335 46.2253 42.3732 44.8853 43.5162 43.5486L43.358 43.3452C42.977 43.6939 42.5024 44.1072 41.9567 44.5269C41.7372 44.6948 41.4498 44.9079 41.0817 44.8789C40.9267 44.8659 40.8008 44.8143 40.7201 44.7723C40.7136 44.6787 40.7136 44.5398 40.7556 44.3784C40.8396 44.0523 41.0462 43.836 41.1689 43.7197C43.0061 41.9955 44.3428 41.3498 44.3428 41.3498C48.6888 38.418 52.2856 34.734 55.169 30.3848C55.6597 29.6454 55.4983 28.4733 55.6404 27.5015C54.7266 27.7372 53.7644 27.8663 52.912 28.2409C52.2856 28.5153 51.7271 29.0513 51.275 29.584C50.6002 30.3783 49.9286 30.3041 49.1473 29.8359C47.4521 28.8253 45.7635 27.8082 44.0522 26.8266C42.7542 26.084 42.7445 25.5739 43.9844 24.7376C45.1209 23.9724 46.3091 23.233 47.281 22.2869C48.043 21.5475 48.7081 20.5305 47.6265 19.3455C45.644 19.7814 44.4493 21.399 43.0125 22.6389C42.4895 23.0877 42.0148 23.6786 41.4272 23.6689C41.0882 23.6624 40.8428 23.4493 40.5199 23.1878C40.197 22.9262 39.6869 22.4355 39.2865 21.5992C39.6481 21.2796 40.1809 20.8211 40.8428 20.2883C44.4332 17.405 46.7095 15.8164 49.6187 15.1707C51.3848 14.7768 53.1413 14.5927 54.8881 15.2288C57.7197 16.2588 59.1824 15.274 59.3729 12.1582C59.5505 9.22967 61.1229 7.29562 63.7188 6.172C66.008 5.18076 68.5685 7.03409 68.8623 9.67525C69.027 11.1605 68.307 12.184 67.5546 13.2915C67.0284 14.0664 66.6635 14.9543 66.2308 15.7809V15.7841Z" fill="#F4F3ED"/>
<path d="M31.0369 49.9223C30.4557 50.9814 29.839 51.8403 29.5032 52.7992C29.2675 53.4805 29.4128 54.2974 29.387 55.0497C30.0263 55.1433 30.9917 55.1885 31.9862 54.7688C33.3455 54.194 33.7878 53.1576 34.6758 53.2254C35.0794 53.2545 35.667 53.5225 36.3257 54.7333C35.0309 56.3024 33.2163 58.0783 30.7721 59.5539C27.7758 61.362 25.4898 61.7171 24.8957 61.8011C23.1425 62.0465 21.5636 61.8108 19.9557 61.2038C18.5318 60.6646 17.5179 61.0875 16.8915 62.5114C16.5945 63.1863 16.4169 63.9515 16.3523 64.6909C16.1005 67.6065 14.528 69.5082 11.9192 70.6157C10.4791 71.226 8.60966 70.5802 7.62487 69.2435C6.71758 68.0133 6.62395 65.7047 7.38271 64.565C8.14794 63.4187 9.51695 62.5631 9.20698 61.1198C9.92378 60.8809 10.6825 60.8292 11.1507 60.4321C12.3583 59.415 13.4238 60.0382 14.5054 60.5096C15.0382 59.8025 15.5871 59.1502 16.0391 58.4367C16.2038 58.1784 16.2748 57.707 16.1489 57.4454C14.2988 53.5547 15.0188 49.8223 17.4017 46.5838C20.1881 42.7964 23.3072 39.2382 26.5037 35.7834C27.8727 34.3046 28.7897 32.7161 29.5484 30.9144C30.0909 29.6293 30.8206 28.4121 31.5729 27.2303C31.7989 26.8752 32.3801 26.7428 32.7966 26.5071C32.9161 26.6104 33.0388 26.717 33.1582 26.8203C32.3833 28.0537 31.6052 29.2871 30.8303 30.5205C30.9271 30.5818 31.0272 30.6432 31.1241 30.7078C31.5858 30.0878 32.1186 29.4324 32.7288 28.764C33.1582 28.2926 33.5812 27.8632 33.9945 27.4725L34.4207 27.9956C33.4456 29.1805 32.4705 30.3655 31.4922 31.5505L31.6827 31.9282C32.8418 30.8401 34.0042 29.7553 35.1633 28.6671C35.3151 28.8383 35.4668 29.0094 35.6186 29.1805C34.4788 30.5269 33.339 31.8733 32.196 33.2198L32.3413 33.3973C32.8999 32.9421 33.4359 32.4545 34.03 32.0542C34.2528 31.9056 34.6176 31.9638 34.9179 31.9282C34.9857 31.9444 35.0729 31.9767 35.1117 32.0509C35.2376 32.2802 34.8437 32.7193 34.7016 32.8775C32.9903 34.7825 31.3243 35.4444 31.3243 35.4444C26.9525 38.4181 23.3524 42.1474 20.4077 46.516C19.9912 47.1359 19.3842 47.8204 20.2592 48.647C21.0987 49.438 21.9511 49.254 22.726 48.7406C23.3427 48.3338 23.8528 47.7235 24.3081 47.1262C25.2896 45.8444 25.5253 45.8185 26.7781 46.7936C28.1439 47.8591 29.571 48.8504 31.0304 49.9191L31.0369 49.9223Z" fill="#F4F3ED"/>
<path d="M50.0804 32.9161C48.9051 32.1541 47.7266 31.3954 46.5513 30.6334L46.3995 30.882C47.4004 31.7602 48.4014 32.6417 49.4023 33.5199C49.4249 33.5619 49.4507 33.6039 49.4733 33.6458C49.4055 33.7201 49.3377 33.7911 49.2699 33.8654C49.1989 33.9235 49.1246 33.9849 49.0536 34.043C47.9849 33.2293 46.9194 32.4157 45.8506 31.602C45.7893 31.6795 45.7279 31.757 45.6666 31.8345C46.1638 32.3091 46.6804 32.8419 47.197 33.436C47.5005 33.7847 47.7814 34.1269 48.043 34.4627C48.0688 34.6758 48.0914 34.8889 48.1172 35.102C48.0107 35.186 47.9074 35.2699 47.8008 35.3539C46.4706 34.2432 45.1371 33.1325 43.8068 32.0217C43.7487 32.0734 43.6873 32.1218 43.6292 32.1735C44.0586 32.6933 44.5397 33.1809 44.8981 33.7492C45.0531 33.9978 44.953 34.4046 44.9692 34.7404C44.6753 34.6532 44.2685 34.6597 44.1071 34.466C43.2579 33.4457 42.4023 32.4221 41.679 31.3146C38.7989 26.9073 35.0826 23.333 30.7624 20.3916C30.0004 19.875 28.9252 19.7394 27.9695 19.6328C27.5788 19.5909 26.904 20.0042 26.7684 20.3658C26.6328 20.7306 26.8588 21.4603 27.1785 21.7219C28.16 22.5323 29.2514 23.2136 30.3233 23.911C31.589 24.7344 31.66 25.3511 30.7431 26.5457C29.8842 27.6629 29.1448 28.8704 28.3312 30.0264C27.8049 30.7754 27.3496 31.1855 26.4423 30.2782C25.351 29.1836 24.0691 28.257 22.7776 27.3981C22.1415 26.9751 21.0631 26.5586 20.695 27.5854C20.4238 28.3377 20.5045 29.5065 20.9307 30.162C21.7315 31.3921 22.9003 32.3834 23.9303 33.4941C23.9077 33.5651 23.8819 33.6329 23.8528 33.6975C23.4072 34.7178 22.3579 35.2086 21.6798 35.441C21.1761 35.0407 20.4464 34.4143 19.6554 33.5619C18.4155 32.2252 16.2425 29.4742 15.4095 25.8741C14.9865 24.0498 14.8219 22.2449 15.4999 20.453C16.4815 17.8538 15.487 16.2846 12.6424 16.1231C9.92699 15.9714 7.96065 14.7444 6.70465 12.3358C5.7909 10.589 6.08472 8.87125 7.55059 7.58619C8.84211 6.44965 11.2056 6.33019 12.5746 7.25685C13.6724 7.99948 14.8283 8.65169 15.9907 9.36526C16.1037 9.70751 16.1424 10.4211 16.5137 10.8376C17.5696 12.0322 16.9884 13.13 16.5073 14.2666C17.1982 14.7929 17.8505 15.345 18.5608 15.797C18.8191 15.9617 19.2937 16.0295 19.5585 15.9068C23.4686 14.0729 27.2075 14.7929 30.4622 17.1951C34.2108 19.9622 37.7431 23.0489 41.1624 26.2196C42.6832 27.6274 44.304 28.5863 46.1767 29.3354C47.4327 29.8359 48.6016 30.5882 49.7413 31.3308C50.0933 31.56 50.2256 32.1315 50.4581 32.548C50.3322 32.6675 50.2063 32.787 50.0836 32.9097L50.0804 32.9161Z" fill="#F4F3ED"/>
<path d="M34.3077 37.3332C33.8363 36.8263 33.4424 36.4065 33.0485 35.9836C33.6522 35.9577 34.2593 35.9448 34.863 35.9028C35.0761 35.8867 35.286 35.7963 35.4184 35.7608C35.3603 35.1118 35.3118 34.5597 35.2634 34.0108C35.78 34.1787 36.2966 34.3498 36.9392 34.5597C37.0651 33.9042 37.1878 33.2488 37.3137 32.5901C37.572 33.0615 37.8497 33.5458 38.1467 34.0398C38.3243 34.3304 38.4987 34.6145 38.6763 34.889C38.9701 34.6953 39.2574 34.4919 39.5577 34.3046C39.8612 34.1141 40.1712 33.9397 40.4779 33.7557C40.5199 34.1496 40.6297 34.5532 40.5812 34.9407C40.5296 35.3701 40.3359 35.7834 40.2003 36.2096C41.0882 36.0837 41.6984 35.9965 42.3087 35.9093C42.0826 36.4324 41.8566 36.9554 41.5757 37.6044C41.6629 37.7529 42.1278 38.2276 42.0278 38.4342C41.8695 38.7636 41.34 38.9153 41.043 39.0961C41.185 39.7096 41.3206 40.2972 41.4563 40.8881C41.0591 40.8687 40.6587 40.8494 40.3423 40.8364C40.3165 41.1626 40.281 41.5952 40.2422 42.0311C39.6998 41.8309 39.1606 41.6307 38.6666 41.4467C38.5633 42.0472 38.4567 42.6736 38.3502 43.2968C38.1919 43.2968 38.0337 43.2903 37.8755 43.2871C37.6624 42.7963 37.4493 42.3088 37.2556 41.8632C36.8843 42.2119 36.542 42.538 36.0093 43.0385C35.8866 42.2959 35.822 41.8923 35.7445 41.4144C34.9567 41.5791 34.1043 41.7341 34.6241 40.4264C34.0526 40.2391 32.5319 41.1948 33.3617 39.3512C33.4488 39.1575 33.1776 38.7958 33.0614 38.5182C32.9129 38.1662 32.7514 37.824 32.5932 37.4753C32.9742 37.4365 33.3552 37.3978 33.7394 37.3623C33.9235 37.3461 34.1043 37.3332 34.3012 37.3203L34.3077 37.3332Z" fill="#F4F3ED"/>
<path d="M37.5526 17.8247C38.7796 17.2532 38.4696 14.6927 38.3727 10.8182C38.1984 3.80845 38.9249 0.611936 37.5171 0.0727266C36.9456 -0.146832 36.3354 0.192191 36.1836 0.282598C34.5595 1.26415 35.5734 4.14747 35.5605 10.1175C35.554 14.499 34.9986 17.0885 36.3225 17.7762C36.6776 17.9603 37.1652 18.0055 37.5526 17.8247Z" fill="#F4F3ED"/>
<path d="M41.8307 14.8413C41.7726 14.7961 41.5434 14.6024 41.4885 14.0115C41.4207 13.2495 41.7177 12.6587 41.7403 12.6135C42.6831 10.7407 43.274 0.159965 44.5559 0.189025C44.6237 0.189025 44.6689 0.221314 45.0369 0.28589C45.7311 0.408584 45.9475 0.360152 46.1186 0.434414C46.7547 0.708862 46.4124 2.37169 46.4124 2.37169C45.3857 7.36988 44.8723 9.86897 43.8552 13.8727C43.7971 14.1019 43.6453 14.7186 43.0867 14.9543C42.7219 15.1093 42.1698 15.1093 41.8275 14.8413H41.8307Z" fill="#F4F3ED"/>
<path d="M47.1195 13.2882C47.0679 13.2398 46.8612 13.0332 46.8709 12.4875C46.8839 11.7868 47.2422 11.2928 47.2713 11.2541C48.4014 9.68489 50.1191 0.172847 51.3848 0.376262C51.4526 0.385948 51.4946 0.421465 51.8497 0.531244C52.5246 0.737887 52.7409 0.724972 52.9023 0.818607C53.4997 1.15763 52.9863 2.61705 52.9863 2.61705C51.4365 7.00822 50.6615 9.2038 49.228 12.6909C49.1472 12.8911 48.9309 13.4303 48.353 13.5659C47.9752 13.6563 47.4295 13.5756 47.1228 13.2882H47.1195Z" fill="#F4F3ED"/>
<path d="M52.7021 12.2356C52.6569 12.1807 52.4858 11.9483 52.5762 11.4317C52.6924 10.7665 53.1154 10.3629 53.1477 10.3306C54.4877 9.03912 57.555 0.30844 58.769 0.721727C58.8336 0.744328 58.8691 0.783074 59.2017 0.947743C59.8345 1.26094 60.0477 1.28677 60.1929 1.403C60.7322 1.82598 60.0121 3.12395 60.0121 3.12395C57.8521 7.02112 56.7704 8.96808 54.8557 12.0322C54.746 12.2066 54.4554 12.6812 53.8677 12.7103C53.4835 12.7296 52.9604 12.5617 52.6989 12.2324L52.7021 12.2356Z" fill="#F4F3ED"/>
<path d="M32.9483 14.8413C33.0065 14.7961 33.2357 14.6024 33.2906 14.0115C33.3584 13.2495 33.0613 12.6587 33.0387 12.6135C32.0959 10.7407 31.5051 0.159965 30.2232 0.189025C30.1554 0.189025 30.1102 0.221314 29.7421 0.28589C29.048 0.408584 28.8316 0.360152 28.6605 0.434414C28.0244 0.708862 28.3667 2.37169 28.3667 2.37169C29.3934 7.36988 29.9068 9.86897 30.9239 13.8727C30.982 14.1019 31.1338 14.7186 31.6923 14.9543C32.0572 15.1093 32.6093 15.1093 32.9516 14.8413H32.9483Z" fill="#F4F3ED"/>
<path d="M27.6596 13.2882C27.7112 13.2398 27.9179 13.0332 27.9082 12.4875C27.8953 11.7868 27.5369 11.2928 27.5078 11.2541C26.3777 9.68489 24.66 0.172847 23.3943 0.376262C23.3265 0.385948 23.2845 0.421465 22.9294 0.531244C22.2546 0.737887 22.0382 0.724972 21.8768 0.818607C21.2795 1.15763 21.7928 2.61705 21.7928 2.61705C23.3427 7.00822 24.1176 9.2038 25.5512 12.6909C25.6319 12.8911 25.8482 13.4303 26.4262 13.5659C26.8039 13.6563 27.3496 13.5756 27.6563 13.2882H27.6596Z" fill="#F4F3ED"/>
<path d="M22.0802 12.2356C22.1254 12.1807 22.2965 11.9483 22.2061 11.4317C22.0899 10.7665 21.6669 10.3629 21.6346 10.3306C20.2947 9.03912 17.2273 0.30844 16.0133 0.721727C15.9487 0.744328 15.9132 0.783074 15.5806 0.947743C14.9478 1.26094 14.7347 1.28677 14.5894 1.403C14.0502 1.82598 14.7702 3.12395 14.7702 3.12395C16.9303 7.02112 18.0119 8.96808 19.9266 12.0322C20.0364 12.2066 20.327 12.6812 20.9146 12.7103C21.2988 12.7296 21.8219 12.5617 22.0834 12.2324L22.0802 12.2356Z" fill="#F4F3ED"/>
<path d="M58.1363 38.447C58.7078 39.674 61.2682 39.364 65.1428 39.2671C72.1525 39.0928 75.349 39.8193 75.8882 38.4115C76.1078 37.84 75.7687 37.2298 75.6783 37.078C74.6968 35.4539 71.8135 36.4678 65.8434 36.4549C61.4619 36.4484 58.8724 35.893 58.1847 37.2169C58.0007 37.572 57.9554 38.0596 58.1363 38.447Z" fill="#F4F3ED"/>
<path d="M61.1197 42.7285C61.1649 42.6704 61.3586 42.4411 61.9495 42.3863C62.7114 42.3185 63.3023 42.6155 63.3475 42.6381C65.2202 43.5809 75.801 44.1718 75.772 45.4536C75.772 45.5214 75.7397 45.5666 75.6751 45.9347C75.5524 46.6289 75.6008 46.8452 75.5266 47.0164C75.2521 47.6524 73.5893 47.3102 73.5893 47.3102C68.5911 46.2834 66.092 45.77 62.0883 44.753C61.8591 44.6949 61.2424 44.5431 61.0066 43.9845C60.8517 43.6197 60.8517 43.0675 61.1197 42.7253V42.7285Z" fill="#F4F3ED"/>
<path d="M62.6727 48.0138C62.7212 47.9622 62.9278 47.7555 63.4735 47.7652C64.1741 47.7781 64.6681 48.1365 64.7069 48.1656C66.2761 49.2957 75.7881 51.0134 75.5847 52.2791C75.575 52.3469 75.5395 52.3889 75.4297 52.744C75.2231 53.4189 75.236 53.6352 75.1424 53.7966C74.8033 54.394 73.3439 53.8806 73.3439 53.8806C68.9527 52.3307 66.7572 51.5558 63.2701 50.1222C63.0699 50.0415 62.5307 49.8252 62.3951 49.2472C62.3046 48.8695 62.3854 48.3238 62.6727 48.0171V48.0138Z" fill="#F4F3ED"/>
<path d="M63.7253 53.5965C63.7802 53.5513 64.0127 53.3801 64.5293 53.4705C65.1944 53.5868 65.598 54.0098 65.6303 54.042C66.9218 55.382 75.6525 58.4494 75.2392 59.6634C75.2166 59.728 75.1778 59.7635 75.0132 60.096C74.7 60.7289 74.6742 60.942 74.5579 61.0873C74.1349 61.6265 72.837 60.9065 72.837 60.9065C68.9398 58.7464 66.9928 57.6648 63.9287 55.7501C63.7543 55.6403 63.2797 55.3497 63.2507 54.7621C63.2313 54.3778 63.3992 53.8548 63.7285 53.5932L63.7253 53.5965Z" fill="#F4F3ED"/>
<path d="M61.1197 33.8428C61.1649 33.9009 61.3586 34.1302 61.9495 34.1851C62.7114 34.2529 63.3023 33.9558 63.3475 33.9332C65.2202 32.9904 75.801 32.3995 75.772 31.1177C75.772 31.0499 75.7397 31.0047 75.6751 30.6366C75.5524 29.9424 75.6008 29.7261 75.5266 29.555C75.2521 28.9189 73.5893 29.2611 73.5893 29.2611C68.5911 30.2879 66.092 30.8013 62.0883 31.8184C61.8591 31.8765 61.2424 32.0282 61.0066 32.5868C60.8517 32.9517 60.8517 33.5038 61.1197 33.846V33.8428Z" fill="#F4F3ED"/>
<path d="M62.6727 28.5539C62.7211 28.6055 62.9277 28.8122 63.4734 28.8025C64.1741 28.7896 64.6681 28.4312 64.7068 28.4021C66.276 27.272 75.7881 25.5543 75.5846 24.2886C75.575 24.2208 75.5394 24.1788 75.4297 23.8237C75.223 23.1488 75.2359 22.9325 75.1423 22.7711C74.8033 22.1737 73.3439 22.6871 73.3439 22.6871C68.9527 24.2369 66.7571 25.0119 63.27 26.4454C63.0698 26.5262 62.5306 26.7425 62.395 27.3205C62.3046 27.6982 62.3853 28.2439 62.6727 28.5506V28.5539Z" fill="#F4F3ED"/>
<path d="M63.7253 22.9746C63.7802 23.0198 64.0127 23.1909 64.5293 23.1005C65.1944 22.9843 65.598 22.5613 65.6303 22.529C66.9218 21.1891 75.6525 18.1217 75.2392 16.9077C75.2166 16.8431 75.1778 16.8076 75.0132 16.475C74.7 15.8422 74.6742 15.6291 74.5579 15.4838C74.1349 14.9446 72.837 15.6646 72.837 15.6646C68.9398 17.8247 66.9928 18.9063 63.9287 20.821C63.7543 20.9308 63.2797 21.2214 63.2507 21.809C63.2313 22.1932 63.3992 22.7163 63.7285 22.9778L63.7253 22.9746Z" fill="#F4F3ED"/>
<path d="M38.4083 59.0435C37.1813 59.615 37.4913 62.1755 37.5882 66.05C37.7625 73.0598 37.036 76.2563 38.4438 76.7955C39.0153 77.0151 39.6255 76.676 39.7773 76.5856C41.4014 75.6041 40.3875 72.7207 40.4004 66.7507C40.4069 62.3692 40.9623 59.7797 39.6384 59.092C39.2833 58.9079 38.7957 58.8627 38.4083 59.0435Z" fill="#F4F3ED"/>
<path d="M34.1301 62.0271C34.1882 62.0723 34.4175 62.266 34.4724 62.8569C34.5402 63.6189 34.2431 64.2097 34.2205 64.2549C33.2777 66.1276 32.6868 76.7084 31.405 76.6794C31.3372 76.6794 31.292 76.6471 30.9239 76.5825C30.2297 76.4598 30.0134 76.5082 29.8423 76.434C29.2062 76.1595 29.5484 74.4967 29.5484 74.4967C30.5752 69.4985 31.0886 66.9994 32.1056 62.9957C32.1638 62.7665 32.3155 62.1498 32.8741 61.9141C33.239 61.7591 33.7911 61.7591 34.1333 62.0271H34.1301Z" fill="#F4F3ED"/>
<path d="M28.8413 63.5831C28.893 63.6316 29.0996 63.8382 29.0899 64.3839C29.077 65.0845 28.7186 65.5785 28.6896 65.6173C27.5595 67.1865 25.8418 76.6985 24.5761 76.4951C24.5083 76.4854 24.4663 76.4499 24.1111 76.3401C23.4363 76.1335 23.22 76.1464 23.0585 76.0528C22.4612 75.7137 22.9746 74.2543 22.9746 74.2543C24.5244 69.8631 25.2993 67.6676 26.7329 64.1805C26.8136 63.9803 27.03 63.4411 27.6079 63.3055C27.9857 63.215 28.5314 63.2958 28.8381 63.5831H28.8413Z" fill="#F4F3ED"/>
<path d="M23.262 64.6358C23.3072 64.6907 23.4783 64.9232 23.3879 65.4398C23.2716 66.1049 22.8487 66.5085 22.8164 66.5408C21.4764 67.8323 18.4091 76.563 17.195 76.1497C17.1305 76.1271 17.0949 76.0884 16.7624 75.9237C16.1295 75.6105 15.9164 75.5847 15.7711 75.4684C15.2319 75.0455 15.9519 73.7475 15.9519 73.7475C18.112 69.8503 19.1937 67.9034 21.1083 64.8392C21.2181 64.6649 21.5087 64.1902 22.0964 64.1612C22.4806 64.1418 23.0037 64.3097 23.2652 64.639L23.262 64.6358Z" fill="#F4F3ED"/>
<path d="M43.0125 62.0271C42.9544 62.0723 42.7251 62.266 42.6703 62.8569C42.6025 63.6189 42.8995 64.2097 42.9221 64.2549C43.8649 66.1276 44.4558 76.7084 45.7376 76.6794C45.8054 76.6794 45.8506 76.6471 46.2187 76.5825C46.9129 76.4598 47.1292 76.5082 47.3004 76.434C47.9364 76.1595 47.5942 74.4967 47.5942 74.4967C46.5674 69.4985 46.054 66.9994 45.037 62.9957C44.9788 62.7665 44.8271 62.1498 44.2685 61.9141C43.9037 61.7591 43.3515 61.7591 43.0093 62.0271H43.0125Z" fill="#F4F3ED"/>
<path d="M48.3013 63.5834C48.2496 63.6318 48.043 63.8385 48.0526 64.3841C48.0656 65.0848 48.424 65.5788 48.453 65.6175C49.5831 67.1867 51.3008 76.6988 52.5665 76.4953C52.6343 76.4857 52.6763 76.4501 53.0314 76.3404C53.7063 76.1337 53.9226 76.1466 54.084 76.053C54.6814 75.714 54.168 74.2546 54.168 74.2546C52.6182 69.8634 51.8432 67.6678 50.4097 64.1807C50.3289 63.9805 50.1126 63.4413 49.5347 63.3057C49.1569 63.2153 48.6112 63.296 48.3045 63.5834H48.3013Z" fill="#F4F3ED"/>
<path d="M53.8807 64.636C53.8355 64.6909 53.6644 64.9234 53.7548 65.44C53.871 66.1052 54.294 66.5088 54.3263 66.541C55.6662 67.8326 58.7336 76.5632 59.9476 76.15C60.0122 76.1274 60.0477 76.0886 60.3803 75.9239C61.0131 75.6107 61.2262 75.5849 61.3715 75.4687C61.9107 75.0457 61.1907 73.7477 61.1907 73.7477C59.0306 69.8506 57.949 67.9036 56.0343 64.8395C55.9245 64.6651 55.6339 64.1905 55.0463 64.1614C54.6621 64.142 54.139 64.3099 53.8775 64.6393L53.8807 64.636Z" fill="#F4F3ED"/>
<path d="M17.8247 38.4213C17.2532 37.1943 14.6927 37.5043 10.8182 37.6012C3.80845 37.7755 0.611937 37.049 0.0727268 38.4568C-0.146832 39.0283 0.19219 39.6385 0.282597 39.7903C1.26415 41.4144 4.14747 40.4005 10.1175 40.4134C14.499 40.4199 17.0885 40.9753 17.7762 39.6514C17.9603 39.2963 18.0055 38.8087 17.8247 38.4213Z" fill="#F4F3ED"/>
<path d="M14.8445 34.1431C14.7993 34.2012 14.6056 34.4305 14.0147 34.4854C13.2527 34.5532 12.6618 34.2561 12.6166 34.2335C10.7439 33.2907 0.163139 32.6998 0.192198 31.418C0.192198 31.3502 0.224487 31.305 0.289063 30.9369C0.411758 30.2427 0.363326 30.0264 0.437588 29.8553C0.712036 29.2192 2.37487 29.5614 2.37487 29.5614C7.37305 30.5882 9.87214 31.1016 13.8759 32.1186C14.1051 32.1768 14.7218 32.3285 14.9575 32.8871C15.1125 33.252 15.1125 33.8041 14.8445 34.1463V34.1431Z" fill="#F4F3ED"/>
<path d="M13.2881 28.8541C13.2397 28.9058 13.033 29.1125 12.4874 29.1028C11.7867 29.0899 11.2927 28.7315 11.254 28.7024C9.68477 27.5723 0.172725 25.8546 0.37614 24.5889C0.385826 24.5211 0.421344 24.4791 0.531123 24.124C0.737766 23.4491 0.724851 23.2328 0.818486 23.0714C1.15751 22.474 2.61693 22.9874 2.61693 22.9874C7.0081 24.5372 9.20368 25.3122 12.6908 26.7457C12.891 26.8265 13.4302 27.0428 13.5658 27.6207C13.6562 27.9985 13.5755 28.5442 13.2881 28.8509V28.8541Z" fill="#F4F3ED"/>
<path d="M12.2356 23.2749C12.1807 23.3201 11.9483 23.4912 11.4317 23.4008C10.7665 23.2846 10.3629 22.8616 10.3306 22.8293C9.03912 21.4894 0.30844 18.422 0.721727 17.208C0.744328 17.1434 0.783075 17.1079 0.947744 16.7753C1.26094 16.1425 1.28677 15.9294 1.403 15.7841C1.82598 15.2449 3.12396 15.9649 3.12396 15.9649C7.02112 18.125 8.96808 19.2066 12.0322 21.1213C12.2066 21.2311 12.6812 21.5217 12.7103 22.1093C12.7296 22.4935 12.5617 23.0166 12.2324 23.2781L12.2356 23.2749Z" fill="#F4F3ED"/>
<path d="M14.8445 43.0254C14.7993 42.9673 14.6056 42.738 14.0147 42.6831C13.2527 42.6153 12.6618 42.9124 12.6166 42.935C10.7439 43.8778 0.163139 44.4687 0.192198 45.7505C0.192198 45.8183 0.224487 45.8635 0.289063 46.2316C0.411758 46.9258 0.363326 47.1421 0.437588 47.3132C0.712036 47.9493 2.37487 47.6071 2.37487 47.6071C7.37305 46.5803 9.87214 46.0669 13.8759 45.0498C14.1051 44.9917 14.7218 44.84 14.9575 44.2814C15.1125 43.9165 15.1125 43.3644 14.8445 43.0222V43.0254Z" fill="#F4F3ED"/>
<path d="M13.2881 48.3141C13.2397 48.2625 13.033 48.0558 12.4874 48.0655C11.7867 48.0784 11.2927 48.4368 11.254 48.4659C9.68477 49.596 0.172725 51.3137 0.37614 52.5794C0.385826 52.6472 0.421344 52.6892 0.531123 53.0443C0.737766 53.7191 0.724851 53.9355 0.818486 54.0969C1.15751 54.6942 2.61693 54.1809 2.61693 54.1809C7.0081 52.631 9.20368 51.8561 12.6908 50.4225C12.891 50.3418 13.4302 50.1255 13.5658 49.5475C13.6562 49.1698 13.5755 48.6241 13.2881 48.3174V48.3141Z" fill="#F4F3ED"/>
<path d="M12.2356 53.8936C12.1807 53.8484 11.9483 53.6773 11.4317 53.7677C10.7665 53.8839 10.3629 54.3069 10.3306 54.3392C9.03912 55.6791 0.30844 58.7465 0.721727 59.9605C0.744328 60.0251 0.783075 60.0606 0.947744 60.3932C1.26094 61.026 1.28677 61.2391 1.403 61.3844C1.82598 61.9236 3.12396 61.2036 3.12396 61.2036C7.02112 59.0435 8.96808 57.9619 12.0322 56.0472C12.2066 55.9374 12.6812 55.6468 12.7103 55.0592C12.7296 54.675 12.5617 54.1519 12.2324 53.8904L12.2356 53.8936Z" fill="#F4F3ED"/>
</svg>
